<?xml version="1.0" encoding="UTF-8"?>
<svg width="200px" height="200px" viewBox="0 0 200 200" version="1.1" xmlns="http://www.w3.org/2000/svg">
    <g stroke="none" stroke-width="1" fill="none" fill-rule="evenodd">
        <circle fill="#D4AF37" cx="100" cy="100" r="100"/>
        <g transform="translate(40, 40)" fill="#FFFFFF">
            <path d="M60,0 C93.137085,0 120,26.862915 120,60 C120,93.137085 93.137085,120 60,120 C26.862915,120 0,93.137085 0,60 C0,26.862915 26.862915,0 60,0 Z M60,10 C32.385763,10 10,32.385763 10,60 C10,87.614237 32.385763,110 60,110 C87.614237,110 110,87.614237 110,60 C110,32.385763 87.614237,10 60,10 Z"/>
            <rect x="55" y="30" width="10" height="60" rx="5"/>
            <rect transform="translate(60, 60) rotate(45) translate(-60, -60)" x="55" y="30" width="10" height="60" rx="5"/>
            <rect transform="translate(60, 60) rotate(-45) translate(-60, -60)" x="55" y="30" width="10" height="60" rx="5"/>
        </g>
    </g>
</svg>
